<svg version="1" xmlns="http://www.w3.org/2000/svg" width="1068" height="1068" viewBox="0 0 801.000000 801.000000"><path d="M445.1 99.3c-12.2 1.1-11.1.1-31.1 26.2-7.1 9.3-14.6 19-16.5 21.5-1.9 2.5-13.7 17.8-26.1 34-36.4 47.5-97.7 127.4-105.9 138-1.9 2.5-7.1 9.2-11.5 15-4.4 5.8-9.6 12.5-11.5 15-4.3 5.5-57.3 74.6-71 92.5-5.4 7.1-10.3 13.4-10.7 14-.5.5-10.4 13.4-21.9 28.5-11.6 15.1-22.1 28.8-23.4 30.5-1.3 1.6-11.2 14.5-21.9 28.5-10.8 14-21.8 28.4-24.6 32-27.6 35.9-26.5 34.2-27.3 40-.3 1.9-.7 8.2-.8 14l-.3 10.5h425.9l.3-270.3c.2-215.8 0-270.2-1-270.3-4.4-.5-13.5-.3-20.7.4zm-83 317.7c0 81-.2 147.4-.4 147.6-.2.2-51.5.3-113.9.2l-113.6-.3 15.4-20c8.5-11 20-26 25.7-33.3 5.6-7.4 13.1-17 16.6-21.5 3.5-4.5 7.2-9.3 8.2-10.7 6.9-9 35.2-45.8 36.2-47 .7-.8 4.1-5.3 7.7-10 7.7-10.1 7.4-9.7 10.3-13.5 1.3-1.7 19.4-25.1 40.2-52 20.7-27 38.7-50.2 39.8-51.7 1.2-1.5 7.8-10.1 14.7-19.1 6.9-9 12.6-16.3 12.8-16.2.1.1.3 66.5.3 147.5zM680.8 493.5c-.2.2-2.6.5-5.4.9-20.3 2.4-42 17.2-52.3 35.6-6.8 12.3-9.5 22.4-9.5 36 0 14 1.7 21.1 7.9 33.5 21.9 43.7 79.5 53.6 115.1 19.8 14.9-14.2 22.7-32.7 22.6-53.4-.1-9-.6-12.4-3.3-20.9-9.2-29.7-35.7-50.1-66.8-51.4-4.4-.2-8.2-.2-8.3-.1z"/></svg>